<?xml version="1.0" encoding="utf-8"?>
<!-- Svg Vector Icons : http://www.onlinewebfonts.com/icon -->
<!DOCTYPE svg PUBLIC "-//W3C//DTD SVG 1.1//EN" "http://www.w3.org/Graphics/SVG/1.1/DTD/svg11.dtd">
<svg version="1.1" xmlns="http://www.w3.org/2000/svg" xmlns:xlink="http://www.w3.org/1999/xlink" x="0px" y="0px" viewBox="0 0 1000 1000" enable-background="new 0 0 1000 1000" xml:space="preserve">
<metadata> Svg Vector Icons : http://www.onlinewebfonts.com/icon </metadata>
<g><path d="M91.7,801.6l-11.6-7.7c60-36.9,93.9-91.7,101.6-164.6C67.2,595.4,10,527,10,424.1c0-63.4,21-116.9,63-160.4c42-43.5,93.5-65.2,154.3-65.2c61.7,0,112.5,21.9,152.4,65.6c39.9,43.7,59.8,99.7,59.8,167.8c0,85.7-33.1,164.6-99.4,236.7C274,740.5,191.2,784.8,91.7,801.6z M642.1,801.6l-11.6-7.7c60-36.9,93.9-91.7,101.6-164.6C617.7,595.4,560.5,527,560.5,424.1c0-63.4,21-116.9,63-160.4c42-43.5,93.5-65.2,154.3-65.2c61.7,0,112.5,21.9,152.4,65.6S990,363.7,990,431.9c0,85.7-33.1,164.6-99.4,236.7C824.5,740.5,741.6,784.8,642.1,801.6z"/></g>
</svg>